<svg xmlns:dc="http://purl.org/dc/elements/1.1/" xmlns:cc="http://creativecommons.org/ns#" xmlns:rdf="http://www.w3.org/1999/02/22-rdf-syntax-ns#" xmlns:svg="http://www.w3.org/2000/svg" xmlns="http://www.w3.org/2000/svg" id="svg328495" viewBox="0 0 200 200" height="200px" width="200px" version="1.1"> <metadata id="metadata328501"> <rdf:rdf> <cc:work rdf:about=""> <dc:format>image/svg+xml</dc:format> <dc:type rdf:resource="http://purl.org/dc/dcmitype/StillImage"/> </cc:work> </rdf:rdf> </metadata> <defs id="defs328499"/> <g id="monogram" style="font-style:normal;font-weight:500;font-size:120px;line-height:1;font-family:'Raleway Medium Alt1';font-variant-ligatures:none;text-align:center;dominant-baseline:middle;text-anchor:middle;fill:#e0dfdd" aria-label="P"> <path id="path328503" style="font-style:normal;font-weight:500;font-size:120px;line-height:1;font-family:'Raleway Medium Alt1';font-variant-ligatures:none;text-align:center;dominant-baseline:middle;text-anchor:middle;fill:#e0dfdd" d="m 132.21719,63.52 c -1.32,-3.24 -3.12,-6.12 -5.4,-8.76 -2.28,-2.64 -5.04,-4.68 -8.16,-6.24 -3.12,-1.56 -6.6,-2.4 -10.32,-2.4 H 72.817188 V 80.2 H 83.617187 V 55.72 h 24.120003 c 2.04,0 3.96,0.48 5.88,1.32 1.8,0.96 3.48,2.16 4.92,3.72 1.44,1.68 2.52,3.48 3.36,5.64 0.84,2.16 1.32,4.56 1.32,6.96 0,2.4 -0.36,4.68 -1.08,6.84 -0.84,2.28 -1.8,4.08 -3,5.76 -1.32,1.68 -2.88,2.88 -4.68,3.84 -1.8,0.96 -3.84,1.32 -6,1.32 H 72.817188 v 40.2 h 10.799999 v -30.6 h 25.440003 c 3.72,0 7.08,-0.72 10.2,-2.28 3.12,-1.44 5.76,-3.48 7.92,-6.12 2.16,-2.52 3.84,-5.4 5.16,-8.76 1.2,-3.24 1.8,-6.6 1.8,-10.2 0,-3.36 -0.72,-6.6 -1.92,-9.84 z"/> </g> </svg>